<?xml version="1.0" standalone="no"?>
<!DOCTYPE svg PUBLIC "-//W3C//DTD SVG 20010904//EN"
 "http://www.w3.org/TR/2001/REC-SVG-20010904/DTD/svg10.dtd">
<svg version="1.0" xmlns="http://www.w3.org/2000/svg"
 width="200.000000pt" height="200.000000pt" viewBox="0 0 200.000000 200.000000"
 preserveAspectRatio="xMidYMid meet">

<g transform="translate(0.000000,200.000000) scale(0.100000,-0.100000)"
fill="#000000" stroke="none">
<path d="M870 1734 c-52 -19 -102 -39 -110 -44 -17 -11 -13 -10 -95 -38 -33
-11 -96 -34 -140 -52 -89 -35 -173 -68 -267 -104 -99 -37 -182 -76 -190 -89
-4 -7 -8 -60 -8 -119 l0 -107 40 -24 41 -24 -23 -15 c-13 -8 -31 -17 -40 -21
-16 -6 -18 -21 -18 -121 l0 -114 37 -22 38 -22 -35 -17 -35 -16 0 -119 0 -120
60 -31 c33 -17 98 -46 145 -65 47 -18 108 -44 135 -57 28 -13 73 -33 100 -43
68 -25 191 -77 241 -100 22 -11 44 -20 48 -20 4 0 33 -12 64 -27 48 -24 70
-28 137 -28 73 1 103 8 145 35 19 12 189 90 197 90 3 0 35 14 70 30 34 17 69
30 76 30 7 0 17 4 23 9 5 5 59 30 119 56 61 25 134 57 163 71 29 13 56 24 60
24 5 0 27 16 50 36 l42 36 0 98 c0 105 -5 130 -25 130 -7 0 -19 7 -26 17 -11
13 -12 17 -1 21 7 2 22 14 33 25 17 19 19 33 17 127 l-3 105 -45 23 c-24 12
-39 22 -33 22 6 0 28 15 47 34 l36 33 0 97 c0 111 -6 122 -86 151 -27 9 -80
30 -119 46 -170 69 -381 149 -393 149 -7 0 -23 6 -35 14 -12 8 -66 30 -119 50
-130 48 -188 48 -318 0z m219 -86 c56 19 62 19 57 4 -20 -68 -20 -70 19 -86
21 -9 47 -16 59 -17 37 -2 -23 -17 -71 -18 -45 -1 -73 -9 -73 -21 0 -4 -7 -24
-16 -45 l-15 -37 -31 48 c-17 27 -36 52 -42 56 -6 4 -47 8 -91 8 -84 0 -86 5
-15 35 62 26 64 29 46 63 -9 17 -16 33 -16 36 0 2 29 -7 64 -21 l64 -26 61 21z
m-319 -176 c14 -6 38 -21 54 -35 88 -72 -91 -154 -282 -127 -87 12 -162 50
-162 83 0 24 27 57 47 57 7 0 13 4 13 9 0 28 269 38 330 13z m336 -265 c-30
-47 -60 -88 -65 -92 -6 -3 -37 5 -68 19 -32 14 -92 39 -133 56 -41 18 -79 36
-84 41 -10 9 -5 10 179 39 77 12 158 25 180 29 22 3 41 3 43 0 2 -4 -22 -45
-52 -92z"/>
</g>
</svg>
